<?xml version="1.0" standalone="no"?>
<!DOCTYPE svg PUBLIC "-//W3C//DTD SVG 20010904//EN"
 "http://www.w3.org/TR/2001/REC-SVG-20010904/DTD/svg10.dtd">
<svg version="1.0" xmlns="http://www.w3.org/2000/svg"
 width="1000.000000pt" height="1000.000000pt" viewBox="0 0 1000.000000 1000.000000"
 preserveAspectRatio="xMidYMid meet">
<metadata>
Created by potrace 1.11, written by Peter Selinger 2001-2013
</metadata>
<g transform="translate(0.000000,1000.000000) scale(0.100000,-0.100000)"
fill="#000000" stroke="none">
<path d="M3140 7105 l0 -495 64 0 63 0 6 42 c7 52 55 101 114 117 25 7 241 11
631 11 l592 0 0 -444 0 -444 -87 -12 c-408 -55 -769 -212 -999 -432 -276 -265
-375 -639 -273 -1036 87 -342 399 -589 859 -681 240 -48 542 -79 995 -101 241
-12 351 -22 495 -46 189 -31 366 -108 417 -180 58 -81 67 -213 23 -307 -72
-153 -340 -288 -680 -341 -143 -23 -403 -39 -505 -31 -401 29 -910 192 -1111
354 -65 53 -114 131 -114 181 0 20 -8 30 -36 44 -20 9 -38 16 -39 14 -6 -7
-374 -824 -377 -837 -2 -7 17 -26 42 -41 l45 -27 28 26 c24 22 37 26 85 25 47
-1 81 -12 192 -61 262 -117 434 -171 679 -213 196 -33 286 -41 566 -47 594
-13 1044 60 1393 227 280 134 510 355 596 571 52 133 61 189 60 394 0 161 -3
203 -21 276 -28 111 -60 182 -123 273 -121 175 -316 309 -565 391 -141 46
-413 94 -677 121 l-68 6 0 419 0 419 24 0 c34 0 245 -62 341 -100 308 -122
471 -259 500 -421 5 -29 13 -38 42 -48 19 -7 36 -11 37 -9 2 1 106 190 231
418 126 228 234 424 242 436 12 19 10 23 -28 49 l-41 27 -42 -19 c-68 -30
-161 -23 -286 21 -425 152 -612 207 -875 256 -66 12 -126 24 -133 26 -10 3
-12 98 -10 451 l3 448 595 3 c519 2 600 0 642 -14 57 -19 94 -59 103 -114 l7
-40 64 0 64 0 -2 493 -3 492 -61 3 -61 3 -7 -39 c-8 -50 -39 -90 -90 -113 -39
-18 -105 -19 -1656 -19 -1564 0 -1616 1 -1657 19 -49 23 -73 55 -80 111 l-6
40 -63 0 -64 0 0 -495z m1470 -2239 l0 -404 -77 15 c-130 24 -224 52 -312 94
-146 71 -204 156 -204 299 0 137 88 235 283 319 54 23 259 80 293 81 16 0 17
-26 17 -404z"/>
</g>
</svg>
