<?xml version="1.0" standalone="no"?>
<!DOCTYPE svg PUBLIC "-//W3C//DTD SVG 20010904//EN"
 "http://www.w3.org/TR/2001/REC-SVG-20010904/DTD/svg10.dtd">
<svg version="1.0" xmlns="http://www.w3.org/2000/svg"
 width="1000.000000pt" height="1000.000000pt" viewBox="0 0 1000.000000 1000.000000"
 preserveAspectRatio="xMidYMid meet">
<metadata>
Created by potrace 1.11, written by Peter Selinger 2001-2013
</metadata>
<g transform="translate(0.000000,1000.000000) scale(0.100000,-0.100000)"
fill="#000000" stroke="none">
<path d="M880 4835 l0 -2585 400 0 400 0 2 1699 3 1699 870 -1699 870 -1699
245 2 245 3 840 1675 840 1675 3 -1682 2 -1683 1930 0 1930 0 0 265 0 265
-1295 0 -1295 0 0 1025 0 1025 1075 0 1075 0 0 225 0 225 -1075 0 -1075 0 0
850 0 850 1295 0 1295 0 0 218 0 219 -1892 6 c-1041 4 -1910 4 -1930 0 l-38
-6 0 -53 c0 -51 -41 -135 -851 -1756 l-851 -1702 -69 135 c-38 74 -439 866
-892 1761 l-822 1628 -617 0 -618 0 0 -2585z"/>
</g>
</svg>
